HIERARCHY
ROOT hip
{
  OFFSET 0 0 0
  CHANNELS 6 Xposition Yposition Zposition Zrotation Yrotation Xrotation
  JOINT abdomen
  {
    OFFSET 0 20.6881 -0.73152
    CHANNELS 3 Zrotation Xrotation Yrotation
    JOINT chest
    {
      OFFSET 0 11.7043 -0.48768
      CHANNELS 3 Zrotation Xrotation Yrotation
      JOINT neck
      {
        OFFSET 0 22.1894 -2.19456
        CHANNELS 3 Zrotation Xrotation Yrotation
        JOINT head
        {
          OFFSET -0.24384 7.07133 1.2192
          CHANNELS 3 Zrotation Xrotation Yrotation
          JOINT leftEye
          {
            OFFSET 4.14528 8.04674 8.04672
            CHANNELS 3 Zrotation Xrotation Yrotation
            End Site
            {
              OFFSET 1 0 0
            }
          }
          JOINT rightEye
          {
            OFFSET -3.6576 8.04674 8.04672
            CHANNELS 3 Zrotation Xrotation Yrotation
            End Site
            {
              OFFSET 1 0 0
            }
          }
        }
      }
      JOINT rCollar
      {
        OFFSET -2.68224 19.2634 -4.8768
        CHANNELS 3 Zrotation Xrotation Yrotation
        JOINT rShldr
        {
          OFFSET -8.77824 -1.95073 1.46304
          CHANNELS 3 Zrotation Xrotation Yrotation
          JOINT rForeArm
          {
            OFFSET -28.1742 -1.7115 0.48768
            CHANNELS 3 Zrotation Xrotation Yrotation
            JOINT rHand
            {
              OFFSET -22.5879 0.773209 7.07136
              CHANNELS 3 Zrotation Xrotation Yrotation
              JOINT rThumb1
              {
                OFFSET -1.2192 -0.487915 3.41376
                CHANNELS 3 Zrotation Xrotation Yrotation
                JOINT rThumb2
                {
                  OFFSET -3.37035 -0.52449 3.41376
                  CHANNELS 3 Zrotation Xrotation Yrotation
                  End Site
                  {
                    OFFSET -1.78271 -1.18214 1.43049
                  }
                }
              }
              JOINT rIndex1
              {
                OFFSET -7.75947 0.938293 5.60832
                CHANNELS 3 Zrotation Xrotation Yrotation
                JOINT rIndex2
                {
                  OFFSET -2.54057 -0.884171 1.56538
                  CHANNELS 3 Zrotation Xrotation Yrotation
                  End Site
                  {
                    OFFSET -1.62519 -0.234802 1.16502
                  }
                }
              }
              JOINT rMid1
              {
                OFFSET -8.24714 1.18213 3.41376
                CHANNELS 3 Zrotation Xrotation Yrotation
                JOINT rMid2
                {
                  OFFSET -3.10165 -0.590103 1.0647
                  CHANNELS 3 Zrotation Xrotation Yrotation
                  End Site
                  {
                    OFFSET -2.48547 -0.328903 0.83742
                  }
                }
              }
              JOINT rRing1
              {
                OFFSET -8.82822 0.546677 1.51678
                CHANNELS 3 Zrotation Xrotation Yrotation
                JOINT rRing2
                {
                  OFFSET -2.60934 -0.819778 -0.0198488
                  CHANNELS 3 Zrotation Xrotation Yrotation
                  End Site
                  {
                    OFFSET -2.33842 -0.294052 0.168128
                  }
                }
              }
              JOINT rPinky1
              {
                OFFSET -8.27202 -0.0477905 -0.4584
                CHANNELS 3 Zrotation Xrotation Yrotation
                JOINT rPinky2
                {
                  OFFSET -1.82734 -0.647385 -0.700984
                  CHANNELS 3 Zrotation Xrotation Yrotation
                  End Site
                  {
                    OFFSET -1.69225 -0.51767 -0.607171
                  }
                }
              }
            }
          }
        }
      }
      JOINT lCollar
      {
        OFFSET 2.68224 19.2634 -4.8768
        CHANNELS 3 Zrotation Xrotation Yrotation
        JOINT lShldr
        {
          OFFSET 8.77824 -1.95073 1.46304
          CHANNELS 3 Zrotation Xrotation Yrotation
          JOINT lForeArm
          {
            OFFSET 28.1742 -1.7115 0.48768
            CHANNELS 3 Zrotation Xrotation Yrotation
            JOINT lHand
            {
              OFFSET 22.5879 0.773209 7.07136
              CHANNELS 3 Zrotation Xrotation Yrotation
              JOINT lThumb1
              {
                OFFSET 1.2192 -0.487915 3.41376
                CHANNELS 3 Zrotation Xrotation Yrotation
                JOINT lThumb2
                {
                  OFFSET 3.37035 -0.52449 3.41376
                  CHANNELS 3 Zrotation Xrotation Yrotation
                  End Site
                  {
                    OFFSET 1.78271 -1.18214 1.43049
                  }
                }
              }
              JOINT lIndex1
              {
                OFFSET 7.75947 0.938293 5.60832
                CHANNELS 3 Zrotation Xrotation Yrotation
                JOINT lIndex2
                {
                  OFFSET 2.54057 -0.884171 1.56538
                  CHANNELS 3 Zrotation Xrotation Yrotation
                  End Site
                  {
                    OFFSET 1.62519 -0.234802 1.16502
                  }
                }
              }
              JOINT lMid1
              {
                OFFSET 8.24714 1.18213 3.41376
                CHANNELS 3 Zrotation Xrotation Yrotation
                JOINT lMid2
                {
                  OFFSET 3.10165 -0.590103 1.0647
                  CHANNELS 3 Zrotation Xrotation Yrotation
                  End Site
                  {
                    OFFSET 2.48547 -0.328903 0.83742
                  }
                }
              }
              JOINT lRing1
              {
                OFFSET 8.82822 0.546677 1.51678
                CHANNELS 3 Zrotation Xrotation Yrotation
                JOINT lRing2
                {
                  OFFSET 2.60934 -0.819778 -0.0198488
                  CHANNELS 3 Zrotation Xrotation Yrotation
                  End Site
                  {
                    OFFSET 2.33842 -0.294052 0.168128
                  }
                }
              }
              JOINT lPinky1
              {
                OFFSET 8.27202 -0.0477905 -0.4584
                CHANNELS 3 Zrotation Xrotation Yrotation
                JOINT lPinky2
                {
                  OFFSET 1.82734 -0.647385 -0.700984
                  CHANNELS 3 Zrotation Xrotation Yrotation
                  End Site
                  {
                    OFFSET 1.69225 -0.51767 -0.607171
                  }
                }
              }
            }
          }
        }
      }
    }
  }
  JOINT rButtock
  {
    OFFSET -8.77824 4.35084 1.2192
    CHANNELS 3 Zrotation Xrotation Yrotation
    JOINT rThigh
    {
      OFFSET 0 -1.70687 -2.19456
      CHANNELS 3 Zrotation Xrotation Yrotation
      JOINT rShin
      {
        OFFSET 0 -36.8199 0.73152
        CHANNELS 3 Zrotation Xrotation Yrotation
        JOINT rFoot
        {
          OFFSET 0.73152 -45.1104 -5.12064
          CHANNELS 3 Zrotation Xrotation Yrotation
          End Site
          {
            OFFSET -1.1221 -3.69964 12.103
          }
        }
      }
    }
  }
  JOINT lButtock
  {
    OFFSET 8.77824 4.35084 1.2192
    CHANNELS 3 Zrotation Xrotation Yrotation
    JOINT lThigh
    {
      OFFSET 0 -1.70687 -2.19456
      CHANNELS 3 Zrotation Xrotation Yrotation
      JOINT lShin
      {
        OFFSET 0 -36.8199 0.73152
        CHANNELS 3 Zrotation Xrotation Yrotation
        JOINT lFoot
        {
          OFFSET -0.73152 -45.1104 -5.12064
          CHANNELS 3 Zrotation Xrotation Yrotation
          End Site
          {
            OFFSET 1.1221 -3.69964 12.103
          }
        }
      }
    }
  }
}
MOTION
Frames:	4
Frame Time:	0.00833333
40.6621 85.5269 250.713 0.0 0.0 0.0 2.34101 -0.00222419 0.0637214 0.646597 0.00594981 0.111938 -1.95277e-14 7.95139e-16 2.23633e-16 -5.98994e-14 9.54166e-15 8.65024e-16 -0.0 0.0 0.0 -0.0 0.0 0.0 -9.99028e-15 5.24139e-17 2.98177e-16 -2.06849e-13 1.31695e-15 3.57812e-15 -3.59452e-12 1.11101e-12 8.5875e-14 -4.11336e-11 -8.71571e-13 5.47055e-13 -9.70394e-11 5.16128e-13 1.40899e-12 -1.67597e-10 8.93736e-13 2.43392e-12 -9.70363e-11 5.17238e-13 1.40581e-12 7.73091 5.47488 0.417314 -9.70385e-11 5.16443e-13 1.41217e-12 2.90554 0.965183 0.102902 -9.703e-11 5.16244e-13 1.41058e-12 10.2786 0.731801 0.0259123 -9.70393e-11 5.17635e-13 1.41217e-12 2.22167 -0.733487 -0.20892 -1.0187e-14 4.89197e-17 0.0 -2.10725e-13 1.22998e-15 1.98785e-15 -3.59467e-12 -1.03607e-12 9.22361e-14 -4.11486e-11 1.27702e-12 5.59778e-13 -9.70623e-11 5.17228e-13 1.41535e-12 -1.67622e-10 8.93736e-13 2.45698e-12 -9.70685e-11 5.1843e-13 1.42807e-12 -7.73091 5.47488 -0.417314 -9.70616e-11 5.17039e-13 1.41853e-12 -2.90554 0.965183 -0.102902 -9.70664e-11 5.17138e-13 1.41853e-12 -10.2786 0.731801 -0.0259123 -9.70554e-11 5.18033e-13 1.40899e-12 -2.22167 -0.733487 0.20892 -2.03217e-16 0.0 -3.88251e-19 2.21549 -8.02973 -0.23136 0.00607172 8.97369 0.152072 -0.477689 -0.951457 0.0348639 2.03217e-16 0.0 3.88251e-19 1.35206 -1.92788 -0.00535799 0.00846654 -2.07867 0.0694597 0.423861 3.99897 -0.12729
42.9466 84.5716 238.376 -179.751 15.4796 176.379 2.06079 -1.48821 -0.83596 1.3741 -2.89901 0.0704623 -1.26152 0.644616 -1.17528 3.98278 4.26183 -1.37692 -0.0 0.0 0.0 -0.0 0.0 0.0 -1.13542e-14 5.27721e-15 -9.7156e-15 4.21397 6.66432 14.3683 -4.40784 -2.04066 6.84426 0.0229021 3.57167 0.499382 -2.90395e-10 1.62105e-10 -3.48862e-10 -5.04922e-10 2.91622e-10 -6.01991e-10 -2.90387e-10 1.62099e-10 -3.48868e-10 7.73091 5.47488 0.417314 -2.90395e-10 1.62105e-10 -3.48859e-10 2.90554 0.965183 0.102902 -2.90387e-10 1.62105e-10 -3.48862e-10 10.2786 0.731801 0.0259123 -2.90396e-10 1.62107e-10 -3.48859e-10 2.22167 -0.733487 -0.20892 -1.14948e-14 5.28264e-15 -1.00456e-14 -7.78308 6.17874 -13.2395 4.55904 -2.14358 -7.04106 -0.035155 4.18648 -0.582843 6.74052e-12 -3.27422e-10 1.07667e-11 1.18056e-11 -5.6069e-10 1.75054e-11 6.73485e-12 -3.27422e-10 1.07758e-11 -7.73091 5.47488 -0.417314 6.74064e-12 -3.27421e-10 1.0769e-11 -2.90554 0.965183 -0.102902 6.73784e-12 -3.27423e-10 1.07699e-11 -10.2786 0.731801 -0.0259123 6.74695e-12 -3.2742e-10 1.0762e-11 -2.22167 -0.733487 0.20892 -2.03217e-16 0.0 -3.88251e-19 3.80416 -8.48411 6.65624 0.0038253 15.1394 0.232258 -1.89145 -6.34607 -7.66856 2.03217e-16 0.0 3.88251e-19 -0.58621 -2.09624 -5.64165 -0.0528766 5.6331 -0.166379 1.58037 -3.74884 6.26581
42.9219 84.5827 238.354 -179.755 15.5645 176.267 1.72098 -3.05324 -1.7896 2.13484 -5.97105 0.0257775 -2.55929 1.32925 -2.41795 8.41662 8.77038 -2.85647 -0.0 0.0 0.0 -0.0 0.0 0.0 -1.51591e-14 9.7554e-15 -2.63887e-14 5.012 12.3866 30.1177 -8.56598 -4.11814 14.1464 -0.0225807 7.2044 1.01447 -4.57426e-10 2.96765e-10 -6.48363e-10 -7.95501e-10 5.31668e-10 -1.11959e-09 -4.57413e-10 2.96751e-10 -6.48373e-10 7.73091 5.47488 0.417314 -4.57426e-10 2.96763e-10 -6.48362e-10 2.90554 0.965183 0.102902 -4.57421e-10 2.96763e-10 -6.48365e-10 10.2786 0.731801 0.0259123 -4.57429e-10 2.96766e-10 -6.4836e-10 2.22167 -0.733487 -0.20892 -1.52405e-14 9.77054e-15 -2.67552e-14 -12.9279 11.6347 -27.689 8.82049 -4.30923 -14.5316 0.0212921 8.5571 -1.202 8.75136e-11 -6.70983e-10 3.01091e-11 1.5151e-10 -1.15184e-09 5.0279e-11 8.75086e-11 -6.70985e-10 3.01143e-11 -7.73091 5.47488 -0.417314 8.75131e-11 -6.70981e-10 3.01105e-11 -2.90554 0.965183 -0.102902 8.75126e-11 -6.70985e-10 3.01122e-11 -10.2786 0.731801 -0.0259123 8.75196e-11 -6.7098e-10 3.01059e-11 -2.22167 -0.733487 0.20892 -2.03217e-16 0.0 -3.88251e-19 5.6033 -8.81896 13.951 -0.0188523 21.6542 0.32544 -4.97313 -11.7031 -16.0595 2.03217e-16 0.0 3.88251e-19 -2.65375 -2.26255 -11.5614 -0.0467982 13.7889 -0.425498 4.68477 -11.6627 13.2401
42.927 84.5833 238.365 -179.601 15.6528 176.304 1.36004 -4.45592 -2.64247 2.81643 -8.70894 -0.0129089 -3.70524 1.93059 -3.52762 12.5755 12.7556 -4.22375 -0.0 0.0 0.0 -0.0 0.0 0.0 -1.4082e-14 1.57268e-14 -2.97432e-14 3.39856 14.9819 44.7044 -11.7895 -5.7733 20.6291 -0.120871 10.7117 1.52176 -6.77106e-10 4.85283e-10 -1.0494e-09 -1.17957e-09 8.73077e-10 -1.81084e-09 -6.77088e-10 4.85263e-10 -1.04942e-09 7.73091 5.47488 0.417314 -6.77107e-10 4.85281e-10 -1.0494e-09 2.90554 0.965183 0.102902 -6.77102e-10 4.85281e-10 -1.04941e-09 10.2786 0.731801 0.0259123 -6.7711e-10 4.85285e-10 -1.0494e-09 2.22167 -0.733487 -0.20892 -1.41104e-14 1.57501e-14 -3.01368e-14 -15.3253 14.5818 -41.0732 12.129 -6.04312 -21.232 0.155341 12.5542 -1.78659 2.14346e-10 -9.833e-10 2.94695e-11 3.70661e-10 -1.68386e-09 4.76024e-11 2.14342e-10 -9.83303e-10 2.94713e-11 -7.73091 5.47488 -0.417314 2.14345e-10 -9.83297e-10 2.947e-11 -2.90554 0.965183 -0.102902 2.14346e-10 -9.83302e-10 2.94725e-11 -10.2786 0.731801 -0.0259123 2.14352e-10 -9.83296e-10 2.94679e-11 -2.22167 -0.733487 0.20892 -2.03217e-16 0.0 -3.88251e-19 7.28824 -8.96929 20.4687 -0.0596309 27.4705 0.419465 -9.08216 -15.8999 -23.9014 2.03217e-16 0.0 3.88251e-19 -4.55871 -2.35704 -16.9176 0.0251633 21.0553 -0.681025 9.18943 -18.2203 20.0564
